<svg xmlns="http://www.w3.org/2000/svg" width="1280" height="640" viewBox="0 0 1280 640" role="img" aria-label="LinkedIn Profile Exporter social preview">
  <rect width="1280" height="640" fill="#f8faf8"/>
  <rect x="96" y="96" width="416" height="448" rx="28" fill="#ffffff" stroke="#cbd8d1" stroke-width="4"/>
  <circle cx="192" cy="190" r="58" fill="#2f7d64"/>
  <rect x="276" y="152" width="160" height="24" rx="12" fill="#194f63"/>
  <rect x="276" y="194" width="116" height="18" rx="9" fill="#8bbfb0"/>
  <rect x="148" y="292" width="304" height="18" rx="9" fill="#d7e6df"/>
  <rect x="148" y="334" width="248" height="18" rx="9" fill="#d7e6df"/>
  <rect x="148" y="386" width="304" height="74" rx="16" fill="#eef8f4"/>
  <path d="M544 320h160" stroke="#2f7d64" stroke-width="18" stroke-linecap="round"/>
  <path d="m682 274 46 46-46 46" fill="none" stroke="#2f7d64" stroke-width="18" stroke-linecap="round" stroke-linejoin="round"/>
  <rect x="768" y="118" width="336" height="88" rx="18" fill="#194f63"/>
  <rect x="768" y="246" width="416" height="88" rx="18" fill="#2f7d64"/>
  <rect x="768" y="374" width="288" height="88" rx="18" fill="#8bbfb0"/>
  <rect x="804" y="150" width="184" height="22" rx="11" fill="#f8faf8"/>
  <rect x="804" y="278" width="224" height="22" rx="11" fill="#f8faf8"/>
  <rect x="804" y="406" width="164" height="22" rx="11" fill="#194f63"/>
</svg>
