<svg xmlns="http://www.w3.org/2000/svg" width="512" height="512" viewBox="0 0 512 512" role="img" aria-label="LinkedIn Profile Exporter icon">
  <path fill="#2f7d64" d="M256 64a80 80 0 1 1 0 160 80 80 0 0 1 0-160Z"/>
  <path fill="#194f63" d="M112 410c16-82 72-130 144-130s128 48 144 130c4 20-11 38-32 38H144c-21 0-36-18-32-38Z"/>
  <path fill="#eef8f4" d="M336 176h84c14 0 26 12 26 26v148c0 14-12 26-26 26h-84c-14 0-26-12-26-26V202c0-14 12-26 26-26Z"/>
  <path fill="#2f7d64" d="M338 216h80v22h-80zM338 260h80v22h-80zM338 304h56v22h-56z"/>
  <path fill="#8bbfb0" d="M92 188h86v28H92zM66 238h112v28H66zM92 288h86v28H92z"/>
</svg>
